<svg width="115" height="17" viewBox="0 0 115 17" fill="none" xmlns="http://www.w3.org/2000/svg">
<path fill-rule="evenodd" clip-rule="evenodd" d="M114.939 3.15816C114.897 3.20138 114.919 3.22299 114.773 3.22299C114.742 3.22406 114.712 3.21902 114.683 3.20817C114.655 3.19732 114.629 3.18089 114.606 3.15983C114.575 3.13023 114.552 3.09215 114.542 3.05012V0.864235L113.653 2.214C113.631 2.24237 113.604 2.26609 113.572 2.28381C113.541 2.3021 113.552 2.30875 113.474 2.30708C113.441 2.30898 113.408 2.30087 113.38 2.28381C113.451 2.26553 113.321 2.24225 113.3 2.214L112.403 0.83099V3.04513C112.403 3.06175 112.383 3.11494 112.417 3.15484C112.346 3.18969 112.269 3.21111 112.191 3.21801C112.163 3.21877 112.135 3.21353 112.109 3.20263C112.083 3.19174 112.06 3.17544 112.041 3.15484C112.012 3.12471 111.992 3.08651 111.985 3.04513V0.219276C111.985 0.161097 112.104 0.109566 112.05 0.0663475C112.071 0.0436689 112.096 0.0259433 112.125 0.0144462C112.154 0.00294912 112.185 -0.00203353 112.216 -0.00014318C112.252 -0.00014318 112.289 0.0929437 112.324 0.0281154C112.498 0.044738 112.387 0.069672 112.41 0.101255L113.496 1.74856L114.597 0.101255C114.616 0.0702633 114.643 0.0447038 114.675 0.0269696C114.707 0.0092354 114.743 -9.33337e-05 114.779 -0.00014318C114.904 0.0314399 114.892 0.0247908 114.935 0.0663475C114.956 0.0856836 114.973 0.109353 114.984 0.135743C114.995 0.162133 115.001 0.190624 115 0.219276V3.04513C114.99 3.08751 114.968 3.12647 114.939 3.15816V3.15816ZM111.241 0.422073H110.428V3.04347C110.421 3.06216 110.42 3.08221 110.424 3.10152C110.428 3.12083 110.437 3.13867 110.451 3.15318C110.389 3.16831 110.329 3.19004 110.271 3.21801C110.127 3.21801 110.071 3.1964 110.087 3.15318C109.983 3.10996 109.959 3.05843 109.959 3.04347V0.422073H109.147C109.084 0.422073 109.103 0.402125 108.99 0.363893C108.969 0.344392 108.953 0.320611 108.942 0.294203C108.932 0.267795 108.927 0.239391 108.928 0.210965C108.927 0.183075 108.932 0.155279 108.943 0.129465C108.953 0.103651 108.969 0.0804237 108.99 0.0613607C109.039 0.0380795 109.094 0.0316534 109.147 0.0430757H111.241C111.306 0.0430757 111.482 0.0231286 111.407 0.0613607C111.428 0.0811833 111.444 0.105257 111.455 0.131938C111.465 0.158618 111.47 0.187275 111.469 0.215951C111.47 0.243841 111.465 0.271637 111.454 0.297451C111.443 0.323265 111.427 0.346492 111.407 0.365555C111.483 0.403788 111.307 0.422073 111.241 0.422073ZM101.766 8.46246L106.365 14.7059C106.465 14.8184 106.542 14.95 106.591 15.0927C106.64 15.2355 106.659 15.3866 106.649 15.5371C106.654 15.7374 106.615 15.9365 106.536 16.1205C106.456 16.3044 106.338 16.4689 106.189 16.6026C105.918 16.8553 105.563 16.9966 105.193 16.9982C104.955 17.0046 104.72 16.9509 104.509 16.8419C104.298 16.7329 104.118 16.5722 103.986 16.3748L99.8515 10.8328L95.8004 16.3532C95.5048 16.7705 95.1363 16.9915 94.7345 16.9915C94.2248 16.9915 93.8894 16.8536 93.6287 16.5909C93.503 16.4725 93.4028 16.3295 93.3343 16.1709C93.2658 16.0122 93.2304 15.8412 93.2302 15.6684C93.2348 15.3093 93.3587 14.9619 93.5822 14.681L98.1082 8.51066L93.554 2.3769C93.3531 2.12313 93.2453 1.80804 93.2485 1.48426C93.246 1.28681 93.2845 1.09099 93.3617 0.909265C93.4389 0.727541 93.553 0.563889 93.6968 0.428722C93.8322 0.292145 93.9934 0.183894 94.1709 0.110267C94.3485 0.0366402 94.5389 -0.000891209 94.7311 -0.00014318C94.961 -0.000121719 95.188 0.0515714 95.3953 0.151123C95.6159 0.257811 95.8053 0.419875 95.9448 0.621545L100.034 6.12198L104.079 0.681386C104.411 0.242548 104.812 0.0164795 105.256 0.0164795C105.442 0.0147733 105.626 0.0513708 105.798 0.124001C105.969 0.196632 106.124 0.303745 106.252 0.438695C106.385 0.562785 106.491 0.712807 106.563 0.879491C106.636 1.04617 106.673 1.22598 106.674 1.4078C106.666 1.72345 106.573 2.03108 106.403 2.29711L101.766 8.46246ZM105.762 0.985581C105.622 0.867608 105.447 0.798223 105.264 0.787771C105.193 0.787771 104.97 0.787771 104.696 1.1435L100.027 7.40359L95.3189 1.07036C95.3043 1.02104 95.2707 0.979534 95.2256 0.954923C95.1805 0.930311 95.1275 0.924599 95.0781 0.939037H95.0582C94.9511 0.832049 94.806 0.771962 94.6548 0.771962C94.5035 0.771962 94.3584 0.832049 94.2513 0.939037L94.2281 0.963971C94.1064 1.10387 94.031 1.27809 94.0122 1.46265C94.0118 1.61949 94.0645 1.77185 94.1617 1.89484L99.0595 8.4957L94.1899 15.2345C94.1228 15.2842 94.0692 15.35 94.0341 15.4258C93.999 15.5016 93.9835 15.585 93.989 15.6684C93.9888 15.7401 94.0035 15.8111 94.0321 15.8769C94.0607 15.9427 94.1025 16.0019 94.155 16.0507C94.3132 16.1819 94.5166 16.2452 94.7212 16.2269C94.8258 16.2269 95.0117 16.207 95.1678 15.9044L99.8332 9.5396L104.6 15.921C104.749 16.2419 104.932 16.2269 105.188 16.2269C105.374 16.2282 105.553 16.1559 105.686 16.0258C105.825 15.8994 106.028 15.7432 106.028 15.5271C106.028 15.3509 105.848 15.2079 105.76 15.0916L100.811 8.46079L105.752 1.85162C105.848 1.72597 105.902 1.57276 105.905 1.41445C105.896 1.26133 105.847 1.11329 105.762 0.985581V0.985581ZM90.6717 2.94539H84.3809V6.93483H89.6407C90.0322 6.9244 90.4118 7.06964 90.6966 7.33876C90.8374 7.47551 90.948 7.64018 91.0215 7.82224C91.095 8.00429 91.1297 8.19971 91.1233 8.39596C91.1233 8.581 91.0855 8.76406 91.0121 8.93388C90.9387 9.1037 90.8313 9.25667 90.6966 9.38335C90.4177 9.7158 90.0607 9.78728 89.6407 9.78728H84.3809V15.4157C84.3809 15.828 84.2298 16.1837 83.9326 16.6059C83.6084 16.7865 83.2459 16.8874 82.875 16.9001C82.512 16.9099 82.1579 16.787 81.8788 16.5544C81.7227 16.4086 81.5979 16.2324 81.5122 16.0366C81.4266 15.8408 81.3818 15.6295 81.3808 15.4157V1.55241C81.3718 1.35308 81.4137 1.15475 81.5026 0.976162C81.5915 0.797576 81.7244 0.644632 81.8888 0.531782C81.9968 0.379443 82.1417 0.257004 82.3098 0.175902C82.4779 0.094799 82.6638 0.0576793 82.8501 0.0680097H90.6701C90.8643 0.0610217 91.0579 0.0933412 91.2393 0.163033C91.4208 0.232725 91.5863 0.338356 91.726 0.473603C91.866 0.610342 91.9758 0.774899 92.0485 0.95669C92.1211 1.13848 92.1549 1.33348 92.1477 1.52914C92.1483 1.71666 92.1098 1.90224 92.0346 2.07399C91.9594 2.24574 91.8492 2.39987 91.7111 2.5265C91.5767 2.66513 91.4147 2.77403 91.2357 2.84618C91.0567 2.91833 90.8646 2.95213 90.6717 2.94539V2.94539ZM91.198 1.03046C91.1262 0.968359 91.0425 0.921584 90.952 0.893002C90.8615 0.864419 90.7661 0.854631 90.6717 0.864235H82.8501C82.7593 0.858148 82.6683 0.870795 82.5826 0.90139C82.4969 0.931986 82.4185 0.979879 82.352 1.0421C82.2092 1.18505 82.2109 1.34796 82.2109 1.55241V15.4157C82.2109 15.6202 82.2109 15.7831 82.3504 15.926C82.4145 16.01 82.4946 16.0804 82.5861 16.1332C82.6776 16.186 82.7786 16.2201 82.8833 16.2336C83.1041 16.2336 83.2585 16.0673 83.4096 15.921C83.4787 15.8578 83.5336 15.7807 83.5708 15.6948C83.608 15.6089 83.6266 15.516 83.6255 15.4224V9.01931H89.6407C89.7368 9.02499 89.833 9.01096 89.9235 8.97809C90.014 8.94522 90.0969 8.8942 90.167 8.82815C90.2285 8.77381 90.2775 8.7067 90.3105 8.63148C90.3434 8.55627 90.3596 8.47476 90.3579 8.39264C90.3629 8.30061 90.3483 8.20857 90.3151 8.12261C90.2819 8.03665 90.2308 7.95872 90.1653 7.89396C90.0953 7.82828 90.0127 7.77749 89.9226 7.74463C89.8324 7.71178 89.7365 7.69755 89.6407 7.7028H83.6172V2.18075H90.6717C90.7669 2.18386 90.8618 2.16732 90.9503 2.13214C91.0389 2.09696 91.1192 2.04391 91.1864 1.97629C91.3259 1.97629 91.3906 1.70036 91.3906 1.5308C91.3956 1.43852 91.381 1.34623 91.3478 1.26C91.3146 1.17376 91.2636 1.09554 91.198 1.03046V1.03046ZM75.1015 15.6584C73.8924 16.371 72.5149 16.7468 71.1119 16.7468C69.7088 16.7468 68.3313 16.371 67.1222 15.6584C65.9487 14.9369 64.9931 13.9096 64.3578 12.6863C63.6904 11.4097 63.3483 9.98798 63.3616 8.54723C63.3348 7.06575 63.6772 5.60092 64.3578 4.28518C64.9936 3.06177 65.949 2.03399 67.1222 1.31139C68.3308 0.597275 69.7085 0.22061 71.1119 0.22061C72.5152 0.22061 73.8929 0.597275 75.1015 1.31139C76.2756 2.03327 77.2321 3.06044 77.8692 4.28352C78.5514 5.5987 78.8938 7.06391 78.8654 8.54557C78.8788 9.98632 78.5366 11.4081 77.8692 12.6846C77.2337 13.9092 76.2768 14.9373 75.1015 15.6584V15.6584ZM75.8121 5.37563C75.3869 4.48508 74.7245 3.72927 73.8978 3.19141C73.0555 2.68534 72.0941 2.41229 71.1119 2.40017C70.1281 2.40202 69.1641 2.67583 68.3259 3.19141C67.5005 3.72013 66.8382 4.46834 66.4132 5.35235C65.9434 6.35082 65.7077 7.44361 65.7242 8.54723C65.7159 9.60251 65.9517 10.6454 66.4132 11.5942C66.839 12.4834 67.5014 13.238 68.3276 13.7751C69.1444 14.3718 70.0742 14.5663 71.1135 14.5663C72.1529 14.5663 73.081 14.3718 73.8995 13.7751C74.7252 13.2375 75.3874 12.4831 75.8138 11.5942C76.2768 10.6453 76.5127 9.60155 76.5028 8.54557C76.5247 7.44872 76.2881 6.36215 75.8121 5.37396V5.37563ZM59.3255 16.5128C59.1787 16.5146 59.033 16.4869 58.897 16.4316C58.761 16.3762 58.6374 16.2942 58.5335 16.1903C58.4254 16.087 58.3401 15.9622 58.2829 15.824C58.2257 15.6857 58.198 15.537 58.2014 15.3875V9.44818H50.066V15.3924C50.0695 15.5431 50.0406 15.6928 49.9813 15.8313C49.922 15.9698 49.8337 16.0939 49.7223 16.1953C49.5075 16.4048 49.2186 16.5208 48.9188 16.5178C48.5867 16.5178 48.3111 16.4098 48.1949 16.1953C48.0651 16.1071 47.9602 15.9869 47.8904 15.8462C47.8206 15.7056 47.7882 15.5493 47.7964 15.3924V1.55241C47.794 1.40748 47.8212 1.26358 47.8763 1.12953C47.9314 0.995485 48.0133 0.874102 48.1168 0.772811C48.3483 0.572888 48.6415 0.458991 48.947 0.450331C49.0935 0.448708 49.2389 0.476396 49.3746 0.531771C49.5103 0.587147 49.6336 0.669096 49.7373 0.772811C49.8442 0.872159 49.929 0.992916 49.9862 1.12723C50.0434 1.26155 50.0717 1.40641 50.0693 1.55241V7.3371H58.2048V1.55241C58.2029 1.4054 58.2326 1.25969 58.2919 1.12518C58.3512 0.990674 58.4387 0.8705 58.5484 0.772811C58.7695 0.567618 59.0592 0.452638 59.3606 0.450485C59.662 0.448332 59.9533 0.55916 60.1772 0.761175C60.4926 0.967296 60.4976 1.2316 60.4976 1.55241V15.3924C60.4916 15.6946 60.3683 15.9825 60.1539 16.1953C60.045 16.3032 59.9152 16.3875 59.7723 16.4429C59.6295 16.4984 59.4769 16.5239 59.3238 16.5178L59.3255 16.5128ZM44.0508 2.53481H40.1192V15.4157C40.1192 15.7216 39.8602 15.9825 39.7872 16.1953C39.4219 16.4114 39.2625 16.5178 38.8923 16.5178C38.7285 16.5286 38.5642 16.5055 38.4097 16.45C38.2552 16.3946 38.1137 16.3079 37.9941 16.1953C37.8832 16.0991 37.7958 15.9789 37.7382 15.8439C37.6807 15.7088 37.6546 15.5624 37.662 15.4157V2.5398H33.5727C33.2834 2.54173 33.003 2.4397 32.7824 2.25223C32.6785 2.15379 32.597 2.03409 32.5434 1.90129C32.4898 1.76848 32.4655 1.62568 32.4719 1.4826C32.4858 1.20577 32.5956 0.942439 32.7824 0.737903C33.0039 0.55209 33.2837 0.450282 33.5727 0.450331H44.0525C44.3436 0.44047 44.6273 0.543485 44.8444 0.737903C45.0503 0.929064 45.1615 1.18505 45.1615 1.60893C45.1599 1.73387 45.1315 1.857 45.0782 1.96999C45.0249 2.08298 44.948 2.18319 44.8527 2.26386C44.6308 2.4546 44.3446 2.5533 44.0525 2.5398L44.0508 2.53481ZM30.0645 16.5178C29.774 16.5178 29.5299 16.4895 29.3456 16.3333C28.8443 16.0413 28.4462 15.6004 28.2066 15.0716C27.9161 14.4948 27.7716 13.6637 27.7716 12.5001C27.7716 11.7355 27.5425 11.1697 27.0843 10.8029C26.626 10.4361 26.0294 10.2522 25.2945 10.2511H20.6623V15.4157C20.674 15.7046 20.5761 15.9873 20.3883 16.207C20.2655 16.4147 19.9666 16.5178 19.6761 16.5178C19.3451 16.5252 19.0231 16.4104 18.7712 16.1953C18.6536 16.1023 18.5585 15.9838 18.4929 15.8488C18.4274 15.7139 18.3931 15.5658 18.3927 15.4157V1.55241C18.3872 1.39701 18.423 1.24293 18.4965 1.10595C18.57 0.968967 18.6786 0.853999 18.8111 0.772811C18.9273 0.558378 19.1879 0.450331 19.4934 0.450331H25.937C26.7347 0.443312 27.5192 0.653613 28.2066 1.05872C28.8972 1.46192 29.4697 2.03974 29.8669 2.73429C30.2854 3.46339 30.4994 4.29213 30.4862 5.13294C30.4964 5.98282 30.2568 6.81695 29.7972 7.53159C29.3804 8.24377 28.7678 8.82083 28.0323 9.19385C28.5968 9.5928 29.0451 9.89034 29.3738 10.4106C29.7107 10.9568 29.8968 11.5825 29.9134 12.2242C29.9388 12.8213 30.0076 13.4157 30.1193 14.0028C30.1481 14.1451 30.2077 14.2793 30.2937 14.3962C30.3797 14.513 30.4902 14.6096 30.6174 14.6793C30.7673 14.7853 30.8925 14.9225 30.9843 15.0816C31.0742 15.2324 31.1218 15.4047 31.1221 15.5803C31.1221 15.9011 31.0175 16.2452 30.8116 16.2901C30.5944 16.4462 30.3318 16.5263 30.0645 16.5178V16.5178ZM28.1386 5.20275C28.1386 4.46803 27.9128 3.84468 27.4612 3.39919C27.2798 3.13399 27.0345 2.91882 26.7481 2.77356C26.4617 2.6283 26.1434 2.55762 25.8225 2.56806H20.6623V8.34443H25.8905C26.2741 8.3594 26.636 8.16159 26.9797 7.88565C27.3396 7.58452 27.6239 7.20307 27.8098 6.77193C28.031 6.27867 28.1431 5.74341 28.1386 5.20275V5.20275ZM11.8578 15.6584C10.63 16.3698 9.23685 16.7452 7.81828 16.7472C6.26923 16.7472 4.93934 16.3848 3.78046 15.6584C2.59711 14.9426 1.63418 13.9135 0.99781 12.6846C0.330452 11.4081 -0.0117351 9.98632 0.00163628 8.54557C-0.0267947 7.06391 0.315672 5.5987 0.99781 4.28352C1.63527 3.05586 2.59799 2.02758 3.78046 1.31139C4.94266 0.584975 6.27089 0.220938 7.81828 0.220938C9.23689 0.224247 10.6298 0.600255 11.8578 1.31139C12.9715 2.07109 13.8833 3.09128 14.5142 4.28352C15.1964 5.5987 15.5388 7.06391 15.5104 8.54557C15.5238 9.98632 15.1816 11.4081 14.5142 12.6846C13.8849 13.8784 12.9727 14.8995 11.8578 15.6584V15.6584ZM12.4538 5.37396C12.027 4.48489 11.3649 3.73 10.5395 3.19141C9.71828 2.69551 8.78202 2.42278 7.82326 2.40017C6.81574 2.39191 5.826 2.66598 4.9659 3.19141C4.14094 3.72116 3.4784 4.46905 3.05159 5.35235C2.583 6.3512 2.34793 7.44382 2.36423 8.54723C2.35536 9.60291 2.59061 10.6463 3.05159 11.5958C3.47844 12.484 4.1406 13.2378 4.9659 13.7751C5.78443 14.3718 6.71253 14.5663 7.82326 14.5663C8.79121 14.5663 9.72097 14.3718 10.5395 13.7751C11.3652 13.2375 12.0274 12.4831 12.4538 11.5942C12.9148 10.6447 13.15 9.60125 13.1412 8.54557C13.1641 7.44899 12.9286 6.36243 12.4538 5.37396V5.37396Z" fill="white"/>
</svg>
